<svg id="Credo" xmlns="http://www.w3.org/2000/svg" xmlns:xlink="http://www.w3.org/1999/xlink" viewBox="0 0 1621.974 535.362"><defs><style>.cls-1{fill:none;}.cls-2{clip-path:url(#clip-path);}.cls-3{fill:#575757;}</style><clipPath id="clip-path" transform="translate(-147.211 -215.285)"><rect class="cls-1" x="147.205" y="215.271" width="1621.984" height="535.37"/></clipPath></defs><g class="cls-2"><path class="cls-3" d="M810.183,576.172l-46.54-.24L673.87,426.09H609.853V385.5h79.771c11.425-.742,19.662-2.886,27.319-7.135,16.375-9.1,33.893-28.662,33.893-56.2,0-12.547-2.947-22.709-9.862-33.953-6.534-10.623-14.05-17.1-27.7-23.911-12.527-6.254-28.922-5.973-49.667-5.633-5.071.081-10.382.181-15.954.181H572.232v317.1H531.645V217.121h130c34.554,0,53.575,0,73.4,11.144,15.914,8.939,30,17.858,41.409,36.5,12.346,20.223,17.858,38.462,17.858,59.167,0,53.214-37.861,91.436-75.1,102.1Z" transform="translate(-147.211 -215.285)"/></g><polygon class="cls-3" points="699.789 1.842 699.789 360.673 915.071 360.673 915.071 320.146 742 320.146 742 203.836 914.31 203.836 914.31 163.249 742.04 163.249 742 43.572 915.071 43.572 915.071 1.842 699.789 1.842"/><g class="cls-2"><path class="cls-3" d="M326.6,575.116c-98.912,0-179.385-80.473-179.385-179.385,0-98.933,80.473-179.4,179.385-179.4A179.168,179.168,0,0,1,491.811,325.72l2.065,4.851H448.538l-.982-1.784A139.05,139.05,0,0,0,326.6,258.015c-76.484,0-138.7,62.234-138.7,138.718s62.214,138.7,138.7,138.7A139.144,139.144,0,0,0,447.135,465.4l1-1.743h44.616l-2.184,4.89A179.633,179.633,0,0,1,326.6,575.116" transform="translate(-147.211 -215.285)"/><path class="cls-3" d="M1589.038,255.953c-76.9,0-139.46,62.574-139.46,139.459,0,76.905,62.555,139.48,139.46,139.48s139.46-62.575,139.46-139.48c0-76.885-62.555-139.459-139.46-139.459m0,319.606c-99.333,0-180.147-80.814-180.147-180.147,0-99.313,80.814-180.127,180.147-180.127s180.147,80.814,180.147,180.127c0,99.333-80.814,180.147-180.147,180.147" transform="translate(-147.211 -215.285)"/><path class="cls-3" d="M1302.737,502.845c-28.14,23.009-59.107,34.674-92,34.674H1141.03V258.761h70.611c26.818,0,57,9.56,78.75,24.993,17.9,12.627,29.182,25.695,44.7,51.812,9.7,16.3,15.032,38.4,15.032,62.213,0,40.908-18.159,81.175-47.382,105.066m85.9-124.608a178.532,178.532,0,0,0-174.716-160.705v-.381l-114.446-.04V575.942h95.686c23.49,0,45.337-2.4,65.06-7.2a178.393,178.393,0,0,0,129.3-167.459l.02-2.586c0-6.834-.3-13.709-.9-20.464" transform="translate(-147.211 -215.285)"/><path class="cls-3" d="M216,694.693a30.806,30.806,0,0,0-6.975-7.175,26.813,26.813,0,0,0-15.974-5.131c-14.351,0-27.78,10.863-27.78,28.5,0,18.239,13.529,28.882,27.78,28.882a28.4,28.4,0,0,0,17.517-5.632,23.324,23.324,0,0,0,8.919-13.529H186.8v-9.821h46.72a43.111,43.111,0,0,1-3.367,17c-6.975,15.072-22.648,22.649-37,22.649-22.448,0-39.866-17.317-39.866-39.545,0-22.649,17.939-39.144,39.966-39.144,16.295,0,30.946,9.841,36.378,22.949Z" transform="translate(-147.211 -215.285)"/></g><rect class="cls-3" x="96.642" y="457.869" width="10.663" height="75.843"/><g class="cls-2"><path class="cls-3" d="M275.934,721.342c.1,8.3,5.932,19.362,19.461,19.362a18.2,18.2,0,0,0,17.318-11.064,20.747,20.747,0,0,0,1.944-8.3,17.487,17.487,0,0,0-1.624-8.3c-2.665-6.474-8.919-11.484-17.838-11.484-11.685,0-19.261,9.22-19.261,19.662ZM325.219,749H314.556v-9.741c-3.888,7.476-11.885,11.384-20.684,11.384-17.938,0-28.6-13.93-28.6-29.523,0-17,12.406-29.5,28.6-29.5,11.064,0,18.139,6.154,20.684,11.485v-9.841h10.663Z" transform="translate(-147.211 -215.285)"/><path class="cls-3" d="M390.584,749H380.542v-8.6c-2.666,5.732-8.919,10.342-18.86,10.242-17.919-.1-22.529-13.128-22.529-24.693v-32.69H349.8v30.225c0,10.041,3.889,17.217,14.872,17.217,10.443-.1,15.253-6.775,15.253-16.295V693.262h10.663Z" transform="translate(-147.211 -215.285)"/><path class="cls-3" d="M453.3,721.036a19.108,19.108,0,0,0-19.282-19.482c-11.465,0-19.261,8.919-19.261,19.482,0,10.642,7.576,19.662,18.96,19.662,12.708,0,19.462-9.942,19.583-19.562Zm-48.785-47.863h10.663v29a25.5,25.5,0,0,1,20.484-10.563c14.451,0,28.28,10.763,28.28,29.323,0,17.919-12.707,29.7-28.681,29.7-9.541,0-16.917-4.61-20.5-11.264V749H404.516Z" transform="translate(-147.211 -215.285)"/><path class="cls-3" d="M518.559,716.213c-.521-7.376-7.9-15.673-18.46-15.473-10.843,0-17.918,7.9-18.44,15.473Zm-37.1,8.3c.521,11.264,10.342,17.017,18.76,17.017,7.476,0,13.008-3.588,16.075-9.441h11.084a30.771,30.771,0,0,1-11.285,13.83,28.188,28.188,0,0,1-15.874,4.73c-18.239,0-29.523-14.651-29.523-29.423A29.571,29.571,0,0,1,520.7,699.818c6.554,6.654,9.32,15.373,8.4,24.693Z" transform="translate(-147.211 -215.285)"/><path class="cls-3" d="M539.552,693.258h10.041v8.6c2.666-5.732,8.919-10.342,18.861-10.242,17.818.2,22.528,13.129,22.528,24.693V749H580.239V718.773c0-10.042-3.908-17.217-14.772-17.117-10.442.1-15.252,6.674-15.252,16.3V749H539.552Z" transform="translate(-147.211 -215.285)"/><path class="cls-3" d="M657.692,706.651a12.758,12.758,0,1,1-.1,0Z" transform="translate(-147.211 -215.285)"/></g><polygon class="cls-3" points="576.855 457.88 576.855 533.722 615.698 533.722 615.698 523.06 588.961 523.06 588.961 457.88 576.855 457.88"/><g class="cls-2"><path class="cls-3" d="M814.35,716.213c-.521-7.376-7.9-15.673-18.46-15.473-10.843,0-17.918,7.9-18.439,15.473Zm-37.1,8.3c.521,11.264,10.343,17.017,18.761,17.017,7.476,0,13.008-3.588,16.074-9.441h11.084a30.769,30.769,0,0,1-11.284,13.83,28.188,28.188,0,0,1-15.874,4.73c-18.24,0-29.524-14.651-29.524-29.423A29.571,29.571,0,0,1,816.5,699.818c6.554,6.654,9.32,15.373,8.4,24.693Z" transform="translate(-147.211 -215.285)"/><path class="cls-3" d="M884.128,721.036a19.108,19.108,0,0,0-19.282-19.482c-11.464,0-19.261,8.919-19.261,19.482,0,10.642,7.6,19.662,18.961,19.662,12.707,0,19.462-9.942,19.582-19.562Zm-48.785-47.863h10.663v29a25.5,25.5,0,0,1,20.484-10.563c14.451,0,28.281,10.763,28.281,29.323,0,17.919-12.708,29.7-28.682,29.7-9.54,0-16.916-4.61-20.5-11.264V749H835.343Z" transform="translate(-147.211 -215.285)"/><path class="cls-3" d="M949.39,716.213c-.521-7.376-7.9-15.673-18.46-15.473-10.863,0-17.918,7.9-18.439,15.473Zm-37.1,8.3c.5,11.264,10.343,17.017,18.761,17.017,7.476,0,13.008-3.588,16.074-9.441h11.064a30.606,30.606,0,0,1-11.264,13.83,28.188,28.188,0,0,1-15.874,4.73c-18.26,0-29.524-14.651-29.524-29.423a29.571,29.571,0,0,1,50.008-21.406c6.554,6.654,9.32,15.373,8.4,24.693Z" transform="translate(-147.211 -215.285)"/><path class="cls-3" d="M970.379,693.258h10.042v8.6c2.665-5.732,8.919-10.342,18.86-10.242,17.818.2,22.529,13.129,22.529,24.693V749h-10.743V718.773c0-10.042-3.909-17.217-14.772-17.117-10.443.1-15.253,6.674-15.253,16.3V749H970.379Z" transform="translate(-147.211 -215.285)"/><path class="cls-3" d="M1088.519,706.651a12.758,12.758,0,1,1-.1,0Z" transform="translate(-147.211 -215.285)"/><path class="cls-3" d="M1213.924,694.693a31.128,31.128,0,0,0-6.955-7.175,26.918,26.918,0,0,0-15.994-5.131c-14.351,0-27.78,10.863-27.78,28.5,0,18.239,13.529,28.882,27.78,28.882a28.4,28.4,0,0,0,17.518-5.632,23.329,23.329,0,0,0,8.919-13.529h-32.69v-9.821h46.74a43.174,43.174,0,0,1-3.387,17c-6.975,15.072-22.649,22.649-37,22.649-22.448,0-39.865-17.317-39.865-39.545,0-22.649,17.938-39.144,39.965-39.144,16.3,0,30.947,9.841,36.379,22.949Z" transform="translate(-147.211 -215.285)"/><path class="cls-3" d="M1285.757,716.213c-.522-7.376-7.9-15.673-18.46-15.473-10.863,0-17.919,7.9-18.44,15.473Zm-37.1,8.3c.5,11.264,10.342,17.017,18.74,17.017,7.5,0,13.028-3.588,16.1-9.441h11.063a30.6,30.6,0,0,1-11.264,13.83,28.205,28.205,0,0,1-15.894,4.73c-18.239,0-29.5-14.651-29.5-29.423a29.571,29.571,0,0,1,50.007-21.406c6.554,6.654,9.32,15.373,8.4,24.693Z" transform="translate(-147.211 -215.285)"/><path class="cls-3" d="M1306.746,693.258h10.041v7.9c2.365-4.73,8.819-9.541,16.9-9.541,5.131,0,10.462,1.544,14.35,5.953a29.541,29.541,0,0,1,3.588,5.432,23.771,23.771,0,0,1,4.009-5.532,20.5,20.5,0,0,1,14.751-5.853c5.111,0,10.864,1.443,14.952,5.632,4.931,5.031,6.154,10.363,6.154,21.006V749h-10.663V718.672c0-4.609-.6-9.219-3.067-12.406-1.944-2.866-4.91-4.61-9.941-4.61-4.71,0-8.7,1.944-10.763,5.331-2.245,3.488-2.546,6.554-2.546,11.265V749h-10.763V718.252c.1-4.61-.421-7.978-2.265-11.064-2.044-3.267-5.331-5.432-10.542-5.532a11.732,11.732,0,0,0-10.563,5.432c-2.044,2.966-2.966,6.874-2.966,11.384V749h-10.663Z" transform="translate(-147.211 -215.285)"/><path class="cls-3" d="M1449.071,716.213c-.521-7.376-7.9-15.673-18.459-15.473-10.864,0-17.919,7.9-18.44,15.473Zm-37.1,8.3c.5,11.264,10.342,17.017,18.76,17.017,7.476,0,13.008-3.588,16.075-9.441h11.063a30.6,30.6,0,0,1-11.264,13.83,28.188,28.188,0,0,1-15.874,4.73c-18.259,0-29.523-14.651-29.523-29.423a29.571,29.571,0,0,1,50.007-21.406c6.554,6.654,9.32,15.373,8.4,24.693Z" transform="translate(-147.211 -215.285)"/></g><path class="cls-3" d="M1470.066,749h10.663v-55.74h-10.663Zm0-64.559h10.663V673.175h-10.663Z" transform="translate(-147.211 -215.285)"/><g class="cls-2"><path class="cls-3" d="M1494.649,693.258h10.042v8.6c2.665-5.732,8.919-10.342,18.86-10.242,17.819.2,22.529,13.129,22.529,24.693V749h-10.743V718.773c0-10.042-3.909-17.217-14.772-17.117-10.443.1-15.253,6.674-15.253,16.3V749h-10.663Z" transform="translate(-147.211 -215.285)"/><path class="cls-3" d="M1584.408,707.809c0-4.309-2.666-7.576-8.1-7.476-5.232,0-8.1,3.488-8,7.175.22,4.39,4.209,6.454,10.141,8.1,8.519,2.345,17.839,4.81,18.139,16.8.221,10.863-8.8,18.239-19.882,18.239-8.8,0-19.763-5.031-20.284-17.738h10.563c.4,6.775,5.832,9.019,9.841,9.019,5.111,0,9.119-3.587,9.119-8.3-.1-5.532-4.309-7.376-14.25-10.643-7.8-2.365-13.93-6.053-14.03-14.451,0-10.563,8.6-16.917,18.74-16.917,7.7,0,17.738,3.788,18.56,16.195Z" transform="translate(-147.211 -215.285)"/><path class="cls-3" d="M1615.04,721.342c.1,8.3,5.933,19.362,19.462,19.362a18.2,18.2,0,0,0,17.317-11.064,20.73,20.73,0,0,0,1.944-8.3,17.5,17.5,0,0,0-1.623-8.3c-2.666-6.474-8.92-11.484-17.839-11.484-11.685,0-19.261,9.22-19.261,19.662ZM1664.326,749h-10.663v-9.741c-3.889,7.476-11.886,11.384-20.685,11.384-17.938,0-28.6-13.93-28.6-29.523,0-17,12.407-29.5,28.6-29.5,11.064,0,18.139,6.154,20.685,11.485v-9.841h10.663Z" transform="translate(-147.211 -215.285)"/><path class="cls-3" d="M1678.356,693.258H1688.4v7.9c2.365-4.73,8.819-9.541,16.9-9.541,5.131,0,10.462,1.544,14.35,5.953a28.492,28.492,0,0,1,3.588,5.432,23.8,23.8,0,0,1,4.009-5.532,20.536,20.536,0,0,1,14.751-5.853c5.132,0,10.864,1.443,14.953,5.632,4.93,5.031,6.153,10.363,6.153,21.006V749h-10.663V718.672c0-4.609-.6-9.219-3.067-12.406-1.944-2.866-4.91-4.61-9.941-4.61-4.71,0-8.7,1.944-10.763,5.331-2.245,3.488-2.546,6.554-2.546,11.265V749h-10.763V718.252c.1-4.61-.421-7.978-2.265-11.064-2.044-3.267-5.331-5.432-10.542-5.532a11.732,11.732,0,0,0-10.563,5.432c-2.044,2.966-2.966,6.874-2.966,11.384V749h-10.663Z" transform="translate(-147.211 -215.285)"/></g></svg>