<svg id="Credo" xmlns="http://www.w3.org/2000/svg" viewBox="0 0 1621.984 360.894"><defs><style>.cls-1{fill:#575756;}</style></defs><path class="cls-1" d="M810.185,576.206l-46.544-.234L673.879,426.131H609.856V385.538h79.769c11.431-.748,19.669-2.884,27.316-7.133,16.393-9.11,33.907-28.658,33.907-56.2,0-12.562-2.95-22.716-9.864-33.954-6.535-10.622-14.047-17.1-27.711-23.921-12.521-6.248-28.921-5.974-49.664-5.628-5.062.085-10.371.169-15.942.169H572.232V575.982H531.639V217.153H661.651c34.546,0,53.577,0,73.4,11.143,15.9,8.942,30,17.862,41.394,36.5,12.36,20.217,17.872,38.459,17.872,59.15,0,53.235-37.871,91.448-75.107,102.11Z" transform="translate(-147.205 -215.311)"/><path class="cls-1" d="M1062.272,575.982H847.013V217.153h215.259v41.723H889.22l.037,119.689h172.266v40.593H889.22V535.465h173.052Z" transform="translate(-147.205 -215.311)"/><path class="cls-1" d="M326.6,575.148c-98.917,0-179.394-80.474-179.394-179.394S227.681,216.36,326.6,216.36A179.176,179.176,0,0,1,491.813,325.745l2.056,4.849H448.548l-1-1.775A139.016,139.016,0,0,0,326.6,258.047c-76.485,0-138.708,62.224-138.708,138.709S250.114,535.465,326.6,535.465A139.129,139.129,0,0,0,447.13,465.442l1-1.757H492.76l-2.182,4.9A179.646,179.646,0,0,1,326.6,575.148Z" transform="translate(-147.205 -215.311)"/><path class="cls-1" d="M1589.044,575.592c-99.33,0-180.141-80.81-180.141-180.139s80.811-180.142,180.141-180.142,180.145,80.811,180.145,180.142S1688.374,575.592,1589.044,575.592Zm0-319.6c-76.9,0-139.464,62.564-139.464,139.465s62.564,139.464,139.464,139.464,139.464-62.564,139.464-139.464-62.563-139.465-139.464-139.465Z" transform="translate(-147.205 -215.311)"/><path class="cls-1" d="M1388.646,378.271a178.513,178.513,0,0,0-174.714-160.709v-.371l-114.438-.038V575.982h95.675c23.5,0,45.338-2.411,65.065-7.2a178.379,178.379,0,0,0,129.287-167.456l.024-2.586C1389.545,391.9,1389.243,385.035,1388.646,378.271Zm-85.913,124.614c-28.139,23-59.09,34.665-91.989,34.665h-69.709V258.791h70.6c26.838,0,57.012,9.572,78.755,24.988,17.907,12.627,29.186,25.7,44.7,51.81,9.691,16.309,15.03,38.406,15.03,62.22C1350.125,438.73,1331.965,478.99,1302.733,502.885Z" transform="translate(-147.205 -215.311)"/></svg>